<?xml version="1.0" encoding="UTF-8"?>
<svg xmlns="http://www.w3.org/2000/svg" version="1.1" viewBox="0 0 198.43 173">
  <!-- Generator: Adobe Illustrator 30.3.0, SVG Export Plug-In . SVG Version: 2.1.3 Build 182)  -->
  <defs>
    <style>
      .st0 {
        fill: #ff2fa2;
      }

      .st1 {
        isolation: isolate;
      }

      .st2 {
        mix-blend-mode: multiply;
      }
    </style>
  </defs>
  <g class="st1">
    <g id="Capa_1">
      <g class="st2">
        <g>
          <path class="st0" d="M198.25,72.35c.42-1.87.09-3.6-.96-5.02-1.27-1.7-3.52-2.83-6.04-3-1.08-.08-3.19-.06-4.3.07-1.55.18-3.16.56-4.72.93-1.26.3-2.55.6-3.8.8.64-4.89-1.65-9.47-5.68-11.24-3.02-1.33-6.55-.66-8.38,1.6-1.53,1.88-1.46,4.37.18,6.67.66.92,1.53,1.65,2.37,2.35,1.74,1.46,3.25,2.72,2.75,5.39-.08.44-1.29,4.56-1.42,4.83-.04.05-.22.18-.35.28-.3.21-.66.47-.91.81-.38.52-.65,1.21-.89,1.81-.16.4-.32.81-.44.95-1.04,1.2-7.56,1.62-10,1.52-4.77-.18-10.11-2.35-13.37-6.28.04,0,.07.02.11.02.21,0,.42-.07.59-.21.6-.49,1.41-.94,2.25-1.41,2.39-1.33,5.36-2.98,4.38-6.52,0-.04,0-.09-.02-.13-.26-.85-2.63-2.35-4.19-3.26,1.89-1.27,3.76-2.62,5.58-3.94l.12-.09c.3-.21.44-.58.37-.94-.06-.29-.01-.85.03-1.34.06-.74.11-1.43-.05-1.98,0,0,0-.01,0-.02-.2-.64-.99-1.38-7.36-5.48-.43-.28-.8-.51-1.09-.7,0-.03,0-.06.01-.1.1-.57.21-1.25-.03-1.88,4.54-19.31-17.86-34.91-30.43-40.49C88.4-4.39,60.75-1.34,40.41,14.31c-19.69,15.15-17.85,28.73-16.07,33.99,0,0-.01.02-.02.03-.03.05-.06.11-.09.17-.6.53-2.16,1.49-3.56,2.36-3.02,1.87-4.39,2.77-4.79,3.52,0,0,0,0,0,0-.41.79-.51,3.4-.3,4.07.09.27.19.57,3.34,2.74-1.69.75-3.17,1.56-4.2,2.22C2.88,71.07-2.38,84.69,1.01,98.96c.04.16.11.39.2.64h0l1.13,3.13c-1.42,2-2.47,3.79-1.35,6.13.2.41.51,1,.39,1.46l-.69,2.68c-.49,1.88.29,5.02,1.01,7.01,1.51,4.22,3.75,8.12,6.67,11.51,1.4,1.64,2.98,3.04,4.84,4.07,1.44.79,2.93,1.1,4.55.79.05-.01.11-.02.17-.03,5.42,3.7,11.85,5.93,18.25,6.19,2.37,8.73,7.53,19.83,16.06,23.45,7.13,3.03,25.66,3.29,28.88-5.36,1.12-3.02.68-10.92-.65-13.81-3.4-7.35-13.1-5.4-15.85-10.7-.6-1.16-1.15-2.63-.4-3.86.67-1.1,11.11-3.35,13.2-4.16,3.1,4.18,5.62,8.84,8.86,12.91,1.73,2.17,9.44,9.46,9.94,10.59.98,2.22.14,5.15,2.21,8.05,1.54,2.16,3.52,1.91,4.58,2.97,1.16,1.15,1.54,4.15,3.77,6.19,23.98,21.85,49.09-48.71,19.47-52.67-14.94-2-18.58,13.7-19.12,25.24-.24.36-4.32,1.15-4.92,1.11-2.58-.14-16.19-18.53-15.3-19.81,3.21-1.47,8.13-6.05,12.21-11.07.32-.05.64-.1.97-.16,15.4-2.76,33.01-10.48,39.66-23.82,6.58,4.48,14.54,6.36,22.63,5.29.87-.12,2.12-.5,3.32-.86,1.38-.42,2.82-.85,3.4-.83.06.03.21.18.32.3.31.32.75.76,1.27.92.52.16,1.04.14,1.54.13.5-.01.97-.03,1.44.12.4.13.82.42,1.27.73.57.39,1.22.84,1.99,1.08,1.06.33,2.21.47,3.42.47,4.51,0,9.75-2.01,13.4-4.08,1.21-.69,2.7-2.13,2.9-3.92.09-.83-.07-1.57-.2-2.22-.11-.51-.21-1-.17-1.44.02-.23.23-.61.45-1.01.42-.78.95-1.74.91-2.84-.04-1.09-.73-2.58-1.13-3.47-.1-.21-.2-.44-.25-.56.07-.12.28-.37.45-.57.57-.68,1.35-1.62,1.55-2.51ZM115.86,167.29l7.24.61c-1.5,2.51-7.72,3.29-7.24-.61ZM125.2,166.69l-10.58-1.52.02-2.1,12.68.6c.23,1.54-.59,2.76-2.12,3.02ZM129.32,162.5l-14.68-1.25.27-2.45c.98-1.43,13.58.82,16.03,1.25l-1.62,2.45ZM131.76,158.28l-16.51-1.86.27-2.45,1.26-.6,16.58,1.85-1.6,3.06ZM134.53,153.37c-4.84-.87-9.8-.81-14.68-1.25-2.35-.21-5.68-.15-2.98-2.97l17.73,1.51-.07,2.7ZM136.11,148.01c-1.19,1.73-16.03-1.71-19.05-.65l.98-3.05,18.35,1.25-.27,2.45ZM136.96,143.73c-5.47-1.26-11.94-.49-17.2-1.19-1.82-.24-.44-2.58.08-3.66,2.68.28,16.4.39,17.48,1.82l-.36,3.03ZM137.59,138.32l-16.9-1.21c-.46-.42,1.03-3.24,2.13-3.04l14.78,1.23v3.02ZM137.59,133.48l-14.49-1.5,2.22-2.65,11.67,1.43.59,2.72ZM136.98,128.65c-2.49-.42-4.98-.54-7.51-.71-.67-.05-2.53.39-2.15-.79,2.99-3,8.35-3.1,9.65,1.5ZM128.96,123.95c-10.48,3.98-17.08,31.18-16.13,41.23.16,1.71,1.31,3.03.91,4.52-5.51-4.39-2.58-16.06-1.22-22.34,2.17-10,7.69-29.24,21.43-24.74l-5,1.33ZM106.79,143.75l-1.2,4.82c1.52,1.29,3.28-5.1,3.45-5.9,1.38-6.13.37-13.41,4.13-18.81,3.6-5.17,12.05-8.55,17.17-3.67-10.53-.82-15.44,12.05-17.94,20.4-2.56,8.57-4.77,19.19-2.59,27.9-1.31-.57-4.82-4.68-4.82-5.73v-8.75c-2.14-.29-1.7,3.88-1.83,5.12-.09.88.53,1.77-.88,1.51-7.09-4.22-3.84-17.76,4.52-16.89ZM144.34,71.57c-.42.23-.85.47-1.27.72-.01-.07-.02-.15-.04-.23-.04-.23-.07-.47-.11-.72l.03-.02s0,0,0,0l4.94-2.93c-.25,1.26-1.6,2.09-3.56,3.17ZM143.08,51.09c1.36.88,4.56,2.94,5.99,4.04,0,0,0,0,0,0l-8.47,5.53h0s0,0,0,0c0-.07,0-.13.01-.19.17-.67,1.21-1.14,2.13-1.56.47-.21.93-.43,1.34-.69.06-.04.12-.07.18-.11.15-.1.29-.22.41-.34,0,0,0,0,0,0,.1-.1.19-.2.26-.31.02-.02.03-.05.04-.08.06-.09.11-.18.15-.28.03-.06.04-.14.06-.2.02-.07.05-.13.06-.21,0,0,0,0,0,0,.03-.19,0-.39-.08-.56-.43-.88-.82-1.54-1.13-2.07-.15-.25-.28-.47-.39-.69-.02-.03-.04-.07-.05-.1-.05-.09-.1-.18-.14-.27-.02-.04-.04-.09-.06-.13-.07-.15-.12-.3-.18-.45-.02-.06-.04-.11-.06-.17-.02-.08-.05-.17-.07-.26-.01-.06-.03-.12-.04-.19-.02-.1-.04-.2-.05-.3,0-.05-.01-.12-.02-.17-.01-.1-.02-.22-.02-.33.04.03.08.05.13.08ZM41.55,15.8C53.51,6.6,68.06,1.88,82.89,1.88c9.73,0,19.59,2.03,28.91,6.18,8.2,3.64,16.29,9.36,21.66,15.31,4.82,5.34,10.06,13.72,7.64,23.35,0,0,0,.01,0,.02-.84,3.32-2.61,6.34-5.06,9.06-2.75,3.05-6.35,5.73-10.45,8.02-8.74,4.89-19.73,8.03-29.45,9.41-2.94.42-5.77.68-8.38.78-4.62.17-10.77-.12-17.51-1.12-5.7-.85-11.82-2.2-17.8-4.24-7.04-2.39-15.46-6.31-21.1-12.39-.03-.03-.06-.07-.1-.1-.18-.2-.36-.4-.54-.61-.06-.07-.13-.14-.19-.21-.15-.18-.3-.36-.45-.54-.08-.1-.16-.2-.24-.3-.12-.15-.24-.31-.35-.47-.1-.13-.2-.27-.3-.4-.09-.13-.18-.26-.27-.39-.12-.17-.24-.34-.35-.51-.07-.11-.13-.21-.2-.32-.13-.2-.25-.4-.37-.6-.05-.08-.09-.17-.14-.25-.13-.23-.27-.47-.39-.7-.03-.06-.06-.11-.09-.17-.14-.27-.27-.54-.4-.81-.01-.03-.03-.06-.04-.09-.14-.3-.27-.61-.4-.91,0,0,0-.01,0-.02-.13-.33-.26-.67-.38-1.01-4.96-14.38,9.12-27.17,15.41-32.01ZM24.28,55.47c.17-.27.35-.53.49-.73.47-.68.96-1.39,1.16-2.11.01-.04.01-.07.02-.11.03-.13.06-.25.08-.38,0,0,.01.02.02.03.12.22.26.43.39.64.22.37.43.74.67,1.1.2.31.43.6.65.9.18.25.36.51.55.76.27.34.56.67.84,1,.16.19.32.39.49.58.32.36.66.7,1,1.05.15.15.29.31.45.46.37.36.76.71,1.15,1.05.03.02.05.05.08.07.11.1.22.21.33.3.2.18.42.34.63.51.22.18.43.36.65.53.13.1.26.21.39.32.46.35.93.69,1.41,1.03.12.09.24.17.36.26.5.34,1.01.67,1.52,1,.11.07.22.15.33.22.53.33,1.08.65,1.63.97.1.06.21.12.31.18.56.32,1.13.62,1.71.92.1.05.2.11.3.16.59.3,1.19.6,1.8.88.09.04.18.09.27.13.61.29,1.24.56,1.87.84.09.04.18.08.27.12.63.27,1.28.53,1.92.79.09.03.17.07.26.1.65.25,1.31.5,1.97.74.08.03.17.06.25.09.66.24,1.33.46,2,.68.08.03.17.06.25.08.67.22,1.34.43,2.02.63.09.03.18.05.26.08.67.2,1.34.39,2.02.58.09.03.19.05.28.08.67.18,1.34.35,2.01.52.1.02.2.05.3.08.66.16,1.31.32,1.97.47.11.03.23.05.34.08.64.14,1.28.28,1.92.41.13.03.26.05.39.08.62.13,1.24.24,1.85.36.15.03.29.06.44.08.59.11,1.18.21,1.77.31.17.03.34.06.51.08.56.09,1.11.17,1.66.25.2.03.39.06.59.09.52.07,1.03.14,1.53.21.22.03.45.06.67.09.47.06.94.11,1.4.16.25.03.51.06.76.08.42.04.84.08,1.26.12.28.03.57.05.85.08.37.03.73.06,1.1.09.32.02.63.05.95.07.31.02.62.04.93.06.35.02.69.04,1.03.05.26.01.51.02.77.03.38.01.75.03,1.11.04.21,0,.41,0,.61.01.4,0,.79.01,1.17.01.08,0,.16,0,.23,0,.1,0,.2,0,.31,0,.29,0,.58,0,.86,0,.1,0,.2,0,.3,0,.31,0,.62-.01.91-.02,3.34-.13,7.52-.57,12.11-1.4,6.23-1.13,13.21-2.98,19.86-5.76.47-.2.94-.4,1.42-.61.02,0,.04-.02.06-.03.47-.21.94-.42,1.41-.65.04-.02.07-.03.11-.05.97-.46,1.95-.95,2.93-1.48.01,0,.03-.02.04-.02.03-.01.05-.03.08-.04.45-.24.9-.49,1.35-.75.05-.03.09-.05.14-.08.47-.27.95-.56,1.42-.85.02-.01.04-.03.07-.04.96-.59,1.9-1.22,2.82-1.89.05-.03.09-.07.14-.1.44-.32.88-.66,1.31-1,.04-.03.08-.06.12-.09.88-.7,1.73-1.44,2.54-2.22.03-.03.07-.06.1-.09.39-.38.78-.77,1.15-1.17.04-.04.08-.09.12-.13.04-.04.08-.08.11-.12.34-.37.67-.74.98-1.13,0,0,0,0,0,0,.36-.44.71-.89,1.05-1.35.01-.01.02-.03.03-.04.32-.45.63-.9.92-1.37.03-.05.06-.09.09-.14.29-.47.56-.94.81-1.43,0,0,.01-.02.01-.03,0,.03.01.05.02.09.04.27.09.52.15.75.01.04.03.09.04.13.06.22.14.42.22.62.02.04.04.09.05.13.09.21.19.42.3.63.03.06.07.13.1.19.09.17.2.35.3.53.03.05.05.09.08.14.25.43.54.91.85,1.52,0,0-.01,0-.02.01-.14.11-.35.23-.58.34-.24.12-.49.23-.69.32-1.24.56-2.79,1.26-3.18,2.81-.17.69.02,1.46.14,1.96.02.09.05.17.06.24,0,.1,0,.19,0,.29,0,.04,0,.09,0,.13,0,.15,0,.3.01.44,0,.23.02.46,0,.67,0,0,0,0,0,0,0,.09-.02.18-.03.27-.01.09-.02.18-.04.26-.01.06-.03.11-.04.16-.02.11-.05.22-.08.33-.02.06-.04.12-.06.18-.03.09-.07.18-.11.27-.03.06-.06.12-.09.18-.04.08-.09.16-.14.24-.04.06-.07.11-.11.17-.05.07-.11.15-.17.22-.04.05-.09.11-.14.16-.07.07-.14.14-.21.21-.05.05-.1.09-.16.14-.09.07-.18.14-.28.21-.05.04-.1.08-.15.11,0,0-.01,0-.02.01,0,0,0,0,0,0-.08-.04-.15-.06-.23-.09-.03-.01-.06-.03-.09-.04-.12-.04-.23-.08-.33-.11,0,0,0,0,0,0,0,0,0,0,0,0-1.67-.54-3.02-.4-4.28.46-.18.12-.36.26-.54.41,0,0,0,0,0,0,0,0,0,0,0,0-1.3,1.12-1.69,3.03-2.07,4.89-.03.13-.05.26-.08.38,0,.05-.02.09-.03.14-.02.07-.03.15-.05.22-.03.14-.06.28-.09.42-.01.05-.02.1-.04.16-.04.17-.08.34-.13.5,0,.02,0,.04-.01.05-.09.32-.2.61-.31.89-.02.05-.04.11-.07.17,0,.01-.01.02-.02.04-.07.14-.14.28-.22.4,0,.01-.02.03-.03.04-.17.25-.36.45-.59.59-.02,0-.03.03-.04.03-.01,0-.03,0-.04.02-.14.08-.31.14-.48.18-.18.04-.38.06-.61.06-.04,0-.08,0-.11,0-.19,0-.4-.03-.61-.07-.05,0-.1-.02-.16-.03-.22-.04-.45-.11-.7-.18-.05-.01-.09-.02-.14-.04,0,0,0,0,0,0,0,0,0,0,0,0-.03-.02-.07-.05-.1-.08-.09-.07-.2-.16-.33-.26-.22-.17-.42-.33-.62-.48-.05-.04-.1-.07-.14-.1-.34-.25-.65-.46-.94-.59-.17-.08-.33-.13-.48-.16-3.56-.67-4.26,1.36-4.83,3-.14.41-.29.83-.47,1.22,0,0,0,0,0,0-.16.33-.26.68-.36,1.01-.15.5-.28.98-.56,1.21-.32.27-1.2.54-1.52.5,0,0-.01,0-.02,0-.3-.13-1.09-.92-1.51-1.36-.12-.13-.25-.25-.37-.37-.36-.36-.7-.68-1-.89,0,0,0,0,0,0-.26-.18-.5-.35-.74-.5-1.58-1.04-2.89-1.5-5.24-.52,0,0,0,0,0,0,0,0,0,0,0,0-1.04.43-1.67,1.28-2.23,2.02-.1.13-.19.26-.28.37-.04.05-.08.1-.12.15-.05.06-.09.12-.14.17-.05.06-.1.11-.15.16-.03.03-.07.07-.1.11-.05.05-.1.09-.16.13-.03.03-.06.05-.09.08-.05.04-.11.06-.16.09-.03.02-.07.04-.1.06-.05.02-.11.04-.17.05-.04.01-.08.03-.12.04-.06.01-.12.01-.18.02-.05,0-.09.01-.15.01-.06,0-.13-.01-.19-.02-.05,0-.1,0-.16-.01,0,0-.02,0-.02,0-.02,0-.05-.01-.08-.02-.02,0-.04-.01-.07-.02-.06-.01-.12-.03-.19-.04-.02,0-.05-.01-.07-.02-.13-.03-.26-.05-.28-.05,0,0,0,0,0,0-.01,0-.02-.01-.03-.02-.64-.34-1.06-.81-1.5-1.31-.88-.99-1.86-2.09-4.29-1.92-.35.02-.73.07-1.14.15-1.7.33-2.35,1.44-2.81,2.47-.06.15-.12.29-.18.43-.09.23-.19.44-.29.66-.03.05-.05.11-.08.16-.11.21-.23.41-.38.59-.01.01-.02.03-.03.05h0s0,0-.01,0c-.01,0-.02,0-.04,0-.02,0-.04,0-.06,0-.04,0-.08,0-.13,0-.03,0-.05,0-.08,0-.05,0-.09,0-.13-.01-.02,0-.04,0-.06,0-.06,0-.11-.02-.14-.04-.38-.23-.63-.52-.93-.84-.57-.64-1.29-1.44-2.94-1.61-2.19-.22-3.82.88-5.14,1.76-.43.29-.76.49-1.02.64-.57.31-.83.32-1.07.13,0,0,0,0,0,0-.27-.23-.39-.67-.53-1.19-.3-1.11-.76-2.79-3.28-3.17-.46-.07-.89-.11-1.29-.11-2.72,0-4.18,1.57-5.63,3.31-.13,0-.25.01-.37.02-.16.01-.36.03-.42.02-.01,0-.02,0-.03,0-.34-.06-.71-.06-1.06-.05,0,0,0,0,0,0-.38,0-.86.02-1.07-.09-.1-.07-.29-.44-.42-.69-.16-.31-.35-.67-.6-1.03-.53-.76-1.33-1.52-2.8-1.83-.31-.07-.6-.12-.87-.15-.27-.03-.53-.05-.78-.05-.01,0-.03,0-.04,0-.47,0-.9.06-1.3.17-.83.23-1.56.7-2.41,1.37,0,0,0,0,0,0,0,0,0,0,0,0-.4.32-.77.73-1.12,1.13-.59.67-1.21,1.37-1.86,1.44,0,0,0,0,0,0-.12.01-.22.01-.31,0-.29-.02-.51-.13-.82-.27-.16-.07-.33-.15-.52-.23-.02,0-.03-.01-.04-.02,0-.02-.01-.04-.02-.06-.06-.16-.12-.32-.18-.46-.02-.04-.04-.08-.05-.12-.06-.15-.13-.29-.19-.42-.12-.26-.24-.51-.34-.8-.1-.3-.19-.6-.28-.9-.53-1.79-1.24-4.25-4.81-3.66-.54.09-1.11.48-1.93,1.07-.29.21-.72.52-.85.57,0,0,0,0-.01,0-.29.09-.57.15-.83.2-.05,0-.09,0-.14.01-.2.03-.4.05-.58.05-.07,0-.12-.01-.19-.01-.75-.03-1.28-.33-1.68-.92,0,0-.01-.02-.02-.03-.07-.11-.14-.23-.2-.36-.04-.08-.08-.16-.12-.24-.04-.09-.08-.17-.11-.26-.32-.78-.53-1.74-.74-2.68-.46-2.09-.95-4.24-2.66-5.12-.05-.03-.09-.06-.14-.09,0,0,0,0,0,0-1.56-.71-2.53-.51-3.39-.35-.13.03-.25.05-.38.07-.05,0-.1.01-.15.02-.08.01-.17.02-.26.03-.06,0-.11,0-.17,0-.09,0-.18,0-.28,0-.06,0-.11,0-.17,0-.03,0-.06,0-.09,0,0,0,0,0,0,0-.01-.02-.02-.03-.04-.05-.05-.08-.11-.16-.17-.24-.03-.04-.06-.08-.09-.13-.09-.12-.19-.25-.29-.39-.24-.31-.63-.82-.69-.94-.09-.46,0-1.03.1-1.58.08-.45.16-.92.15-1.35v-.02s0,0,0,0v-.22s0,0,0,0h0s0,0,0,0c0-.78-.12-1.41-.31-1.95-.13-.38-.31-.7-.5-.98-.8-1.18-2.03-1.6-2.89-1.88-.18-.06-.43-.14-.64-.23-.16-.07-.29-.13-.33-.19-.05-.19.17-.62.44-1.04ZM136.39,69.87c-.13-.04-.6-.1-1.21-.11.42-.16.89-.45,1.34-.97.1.28.15.73.17,1.23-.12-.08-.23-.13-.3-.15ZM136.57,72.1c-.08.56-.18,1.09-.31,1.49-.15.46-.37.92-.64,1.38-.03-.15-.07-.31-.13-.48-.14-.38-.45-.67-.93-.88-.19-.08-.44-.15-.71-.22.2.03.39.05.58.08l.52.07s.08,0,.13,0c.28,0,.55-.13.73-.35.28-.35.4-.75.49-1.03h0c.1,0,.19-.03.27-.07ZM132.15,73.06c.3.09.6.16.9.21-.63-.07-1.27-.07-1.7.04.04-.18.07-.35.11-.53,0-.05.02-.1.03-.14,0-.04.02-.07.02-.11.07.1.15.19.24.29.11.11.25.19.4.24ZM132.09,70.27c.02-.05.04-.11.06-.16.08-.21.18-.4.28-.57.01-.02.03-.04.04-.07.38.21.73.32,1.06.39-.52.08-1.03.21-1.44.42ZM133.82,77.12c-.2.19-.42.38-.65.56-.02-.17-.07-.31-.12-.42-.05-.11-.11-.2-.17-.29.32.09.64.14.94.15ZM131.28,77.96s0,0,0,0c0,0,0,0,0-.01,0,0,0,0,.01,0ZM130.69,75.71s0,0-.01,0c0,0,0,0,0,0,0,0,0,0,0,.01ZM128.76,79.49c-.13-.45-.42-.8-.78-1.08.16-.04.32-.1.47-.16.01,0,.03-.01.04-.02.12-.05.24-.11.35-.17.03-.02.05-.04.08-.06.07-.05.14-.1.21-.15.02.05.48,1.2,1.1,1.8-.46.26-.95.5-1.44.74.06-.31.05-.61-.04-.9ZM126.94,79.98c-.27-.05-.45-.15-.5-.26-.01-.03-.02-.06-.03-.09.24.12.45.25.53.35ZM122.74,79.24c.74-.32,1.44-.66,2.03-.98.03,0,.07.01.1.02,0,0,.02,0,.03,0-.44.81-.49,1.64-.11,2.34.24.44.64.77,1.13.98-.55.2-1.12.38-1.69.56.07-.2.14-.42.2-.67.03-.12.03-.25,0-.37-.15-.86-1.25-1.61-1.7-1.89ZM120.92,77.93c-.54.18-1.06.3-1.56.38.55-1.59.74-2.13,2.69-1.76.17.05.53.3.86.55-.62.3-1.3.6-2,.83ZM122.51,81.41c-.04.13-.08.23-.12.3-.14-.17-.28-.45-.36-.7.18.13.36.28.48.4ZM110.52,83.85c.73,1.04,2.13,1.34,3.28,1.49.58.07,1.2.11,1.84.12.05,0,.1,0,.16,0,1.19,0,2.49-.12,3.85-.33-2.5.54-4.74.85-6.43.88-4.65.09-9.15-1.24-13.29-2.69.13-.06.26-.14.39-.22.06.01.11.03.17.04.05.01.1.02.14.03.06.01.12.03.16.04,0,0,.01,0,.02,0,0,0,0,0,0,0,.88.28,1.67.41,2.36.41.87,0,1.61-.22,2.22-.65.95-.67,1.5-1.83,1.67-3.46.94-.31,1.56-.24,2.26.13.27.14.56.32.88.54-.28,1.42-.37,2.68.31,3.64ZM111.89,81.67s.02.02.03.02c.24.24.46.47.67.67.02.02.03.03.05.05.2.19.4.37.58.51.01.01.03.02.04.03.11.09.23.17.34.23.02.09.04.16.06.23-.85-.15-1.41-.36-1.61-.65-.16-.22-.2-.6-.16-1.1ZM117.84,83.47c.17-.45.2-.93.06-1.43.35-.51.52-1.08.67-1.57.02-.07.04-.14.06-.21.51-.02,1.04-.09,1.58-.2-.1.36-.12.77-.03,1.22.13.62.44,1.24.86,1.71-1.1.23-2.18.39-3.19.49ZM95.79,95.17c-3.55,2.43-7.21,4.95-10.91,7.16,0,0,0,0,0,0,0,0,0,0,0,0l-.23.14c-.83.51-1.45.88-1.91,1.14l.17-2.03,16.67-11.04c.72.27,1.39.5,2.03.7-1.96,1.29-3.92,2.62-5.82,3.93ZM102.49,92.91c.52-.34,1.03-.69,1.55-1.03,5.63,1.2,11.2,1.32,17.63.34-4.19,2.28-9.46,4.72-15.47,6.63-3.95,1.25-8.21,2.26-12.7,2.84-1.54.2-3.11.34-4.7.43,2.24-1.43,4.45-2.93,6.63-4.42.47-.32.96-.65,1.43-.97,1.85-1.27,3.74-2.55,5.64-3.81ZM82.14,99.84c-.25-.41-.63-.71-.85-.88-.1-.08-.19-.15-.28-.23-1.97-1.75-4.59-3.33-7.14-4.86-1.94-1.17-3.94-2.37-5.62-3.63,2.76-1.16,5.8-2.91,7.98-4.64,0,0,0,0,0,0,.32-.25.61-.52.9-.8.15-.14.3-.28.44-.41.01,0,.02,0,.03,0,.14.06.29.1.43.12.03,0,.07,0,.1,0,.08,0,.17.02.25.02.03,0,.06,0,.08,0,.05,0,.11,0,.16-.01.1,0,.19-.02.29-.04.05-.01.1-.02.16-.03.11-.03.21-.06.32-.1.03-.01.07-.02.1-.04.14-.05.27-.12.4-.18.05-.03.1-.05.15-.08.09-.05.18-.09.26-.15.05-.03.11-.06.16-.1.08-.05.17-.1.25-.16.05-.03.1-.06.15-.09.12-.08.24-.16.35-.23,1.18-.79,2.4-1.61,3.91-1.46.93.09,1.23.43,1.73.99.34.38.73.82,1.35,1.19.57.34,1.27.35,1.69.35,0,0,0,0,0,0,0,0,.02,0,.02,0,.04.02.07.04.11.05.04.02.09.04.11.05,1.11.73,1.97,1.43,2.79,2.11,1.29,1.06,2.53,2.08,4.54,3.04l-15.37,10.18ZM41.84,93.8c.18.24,1.58,1.12,2.82,1.95.76.5,1.47.98,1.8,1.28.41.36,1.11,1.08,1.89,1.96,1.8,2.03,4.02,4.91,4.19,6.22,0,.07.03.14.02.2,0,0,0,0,0,0,0,0,0,0,0,0,0,.28-.13.51-.31.69-.15.15-.35.28-.57.37,0,0,0,0-.01,0-.01,0-.03,0-.04.01-.2.08-.42.12-.64.14-.21.02-.41.02-.6-.01-.08-.01-.16-.02-.23-.04-.17-.05-.38-.24-.63-.51-.34-.38-.74-.93-1.14-1.51-.36-.52-.71-1.05-1.02-1.49-.26-.37-.48-.69-.66-.88-2.82-3.22-7.42-5.99-11.9-7.26-.6-.17-1.2-.32-1.8-.43-.28-.05-.56-.1-.83-.14-.22-.03-.44-.05-.66-.07-.13-.01-.25-.03-.38-.04-.38-.03-.86-.02-1.37.01-.01,0-.03,0-.04,0,0,0,0,0,0,0-1.31.08-2.86.28-3.79.15-.01,0-.03,0-.05,0,0,0-.02,0-.03,0-.17-.03-.32-.07-.44-.12,0,0,0,0,0,0,0,0,0,0,0,0-.79-.37-1.54-2.14-.9-2.93,0,0,0,0,0,0,0,0,0,0,0,0,.3-.24.63-.39.98-.48.97-.28,2.07-.12,3.08-.33.18-.04.35-.08.52-.14l.03-.74v-.3s-.11-.06-.23-.07c-.09-.01-.2-.02-.34-.02,0,0,0,0,0,0,0,0,0,0-.01,0-.21,0-.46.01-.73.03-1.57.11-4.03.45-4.75.32-.4-.08-1.49-.77-.96-1.22,1.23-.42,2.48-.74,3.75-.95.3-.05.6-.09.9-.12.33-.04.66-.08.99-.1.34-.03.68-.05,1.02-.07,1.6-.07,3.21,0,4.81.23,1,.14,2,.35,2.99.6,1.2.3,2.37.68,3.53,1.13.54.21,1.07.44,1.59.68.59.27,1.17.55,1.74.86.53.28,1.05.58,1.56.9.34.21.68.42,1.01.64.89.59,1.76,1.23,2.58,1.91.81.67,1.58,1.38,2.32,2.13.53.54,1.04,1.1,1.53,1.67,1.64,1.96,3.01,4.12,4.02,6.43h0s0,0,0,0l-.96.64s0,0,0,0h0c-.34.04-.63-.15-.88-.36-.6-.51-1.51-1.95-2.41-3.31-.6-.91-1.19-1.79-1.68-2.35-1.03-1.18-2.51-2.6-4.02-3.8-.5-.4-1-.76-1.49-1.09-.43-.29-.85-.56-1.26-.77-.42-.22-1.05-.45-1.53-.51-.44-.05-.76.03-.72.36.02.16.13.39.35.69ZM29.95,124.1c-.54-.19-1.09-.43-1.63-.72l-2.22-3.8c2.05.15,3.95-.06,5.7-.87.77-.36,1.38-.87,1.84-1.47,2.99-1.02,1.88-5.76-1.77-6.45-.87-.16-1.54-.04-2.05.27-.45,0-.91,0-1.37,0-.84,0-1.58-.08-2.33-.45-1.38-.66-2.69-1.4-3.96-2.23,2.59-5.01,9.61-7.39,16.31-1.48,1.73,1.52,2.88,3.13,3.58,4.73,1.35,3.11.94,6.19-.57,8.58-.99,1.57-2.45,2.84-4.19,3.62-2.15.96-4.72,1.18-7.34.27ZM33.82,99.12c-1.87-.25-6.33.66-6.99-1.4-.97-3.06,4.24-2.16,6.42-1.68.21.05.4.09.55.12.48.11.99.27,1.51.45,1.12.38,2.3.9,3.5,1.54,1.33.71,2.67,1.56,3.9,2.5,1.07.81,2.06,1.69,2.91,2.61.52.56.98,1.13,1.37,1.7.34.49.63.99.86,1.48,1.07,2.32-.74,3.14-2.13,2-.45-.38-1.5-2.44-2.1-3.17-2.27-2.74-6.21-5.67-9.8-6.16ZM25.02,72.77c-.07-.81-.21-2.6-.21-2.84,0,0,0,0,0,0,0,0,0,0,0,0,.09-1.01.96-3.3,1.61-4.66,0,.01,0,.02,0,.04.1.46.46.95,1.03,1.7.22.29.57.74.63.89,0,0,0,0,0,0,0,0,0,0,0,0,.08.19.15.34.22.48.12.23.16.31.18.62.02.26-.05.62-.13,1.04-.1.54-.21,1.18-.19,1.89,0,.32.03.66.11,1.01.82,3.9,4.46,7.41,10.27,9.88.79.33,1.51.61,2.21.84,0,0,0,0,.01,0,3.41,1.18,7.09,1.85,10.12,1.85.04,0,.08,0,.12,0,.81,0,1.56-.06,2.24-.16,1.56-.22,2.56-.72,3.15-1.58.7-1.01.64-2.33.41-3.58.95-.69,1.61-.91,2.77-.74.03,0,.06.01.09.02.63,1.97,1.61,3.29,2.91,3.91.55.26,1.14.39,1.77.39.69,0,1.43-.17,2.2-.48.21,0,.42,0,.6-.01.17-.01.37-.03.47-.01.31.06.74.19,1.2.37-.38.17-.77.35-1.18.54-1.24.58-2.53,1.17-3.45,1.42-4.59,1.23-9.35,1.62-13.76,1.13-.72-.08-1.74-.37-2.73-.64-1.33-.37-2.59-.72-3.56-.75-.84-.31-1.7-.62-2.56-.93l-.98-.35h0c-4.19-1.49-7.91-2.93-10.94-5.44-.57-.48-1.33-1.43-2-2.27-.79-.99-1.29-1.61-1.73-1.93-.12-.09-.37-.27-.7-.34-.08-.33-.16-.66-.2-1.08,0,0,0,0,0,0s0,0,0,0c0-.06-.01-.14-.02-.22ZM34.43,72.94c.47-.16.76-.34.95-.53,0,.04.02.08.03.12.04.19.08.37.12.56-.34-.12-.71-.16-1.1-.14ZM35.73,77.57c-.17.25-.32.39-.42.46,0-.04,0-.1.03-.15.05-.13.19-.24.39-.31ZM32.12,70.12c-.36.05-.72.11-1.07.2,0,0,0,0,0,0-.19.05-.38.06-.54.07-.09,0-.2.02-.31.03,0-.02,0-.04.01-.06.02-.1.04-.21.06-.31.6.06,1.3.06,1.98-.02.85-.09,1.66-.3,2.17-.67.02.03.04.06.06.1.08.14.15.29.22.46.02.05.04.09.06.15.03.08.06.18.09.27-.7-.3-1.71-.34-2.72-.21ZM32.92,75.46c.19-.23.52-.5.73-.54.24-.05.43-.08.59-.09-.18.15-.4.3-.66.43-.27.13-.49.19-.67.2ZM33.58,77.24c-.05.13-.08.26-.1.38-.12-.1-.24-.2-.35-.31.15-.02.3-.04.45-.08ZM32.8,73.25c-.7.31-1.39.94-1.72,1.67-.23-.37-.42-.76-.58-1.16.27-.05.6-.18,1.1-.4.04-.02.06-.03.09-.04.41-.01.77-.04,1.1-.07ZM36.07,75.61c.05-.06.1-.13.14-.19.02.06.04.12.07.18-.07,0-.13,0-.2,0ZM37.83,80.41c-.49-.24-.99-.51-1.51-.81.48-.31.99-.89,1.48-1.88.07.05.16.09.23.14.04.03.08.07.13.1.06.03.12.06.18.09.05.03.1.07.15.09-.35.3-.6.69-.71,1.16-.08.37-.06.75.04,1.11ZM39.62,79.7c.05-.22.39-.31.63-.35-.24.55-.44.75-.48.78-.08-.04-.19-.25-.15-.43ZM40.41,78.49s0,0,0,0l.04.32s-.01.05-.02.07l-.03-.38ZM42.32,78.46c.52.3,1.05.56,1.59.77-.83.58-1.74,1.67-1.78,2.22-.02.25.02.47.08.69-.28-.09-.56-.17-.83-.27-.19-.06-.39-.14-.58-.21.68-.46,1.2-1.35,1.56-2.67.05-.18.02-.36-.03-.53ZM48.65,83.44s.03.05.04.08c-.95-.09-1.93-.25-2.93-.45.04-.03.09-.05.12-.09.37-.32,1.16-1.23.62-2.9,0-.02-.03-.04-.04-.06.56.13,1.13.25,1.69.36.07.17.15.32.22.48.16.34.31.68.43,1.08,0,0,0,0,0,.01-.13.29-.37.84-.15,1.49ZM43.94,77.2c.36-.26.85-.6,1.02-.65,1.65-.27,2.04.21,2.53,1.77-1.25-.27-2.45-.59-3.55-1.11ZM44.58,81.6c-.19.11-.41.09-.52.04.17-.22.47-.52.72-.74.05.28.04.56-.2.7ZM53.12,83.46s.03-.09.04-.14c.05-.02.1-.04.15-.06.05-.02.11-.05.16-.07.08-.04.17-.09.25-.13.05-.03.1-.06.15-.09.08-.05.16-.11.24-.17.04-.03.08-.06.12-.09.11-.09.21-.17.31-.27,0,0,.01-.01.02-.02.11-.1.21-.2.31-.31.03-.04.07-.07.1-.11.04-.05.09-.09.13-.14-.02.36-.09.63-.23.83-.26.37-.84.62-1.75.76ZM71.45,84.64c.44-.09,1.01-.05,1.63-.01.41.03.85.05,1.3.04-2.38,1.74-5.66,3.5-8.27,4.41-.06.02-.16.04-.26.06-.2.04-.43.1-.63.16,0,0,0,0,0,0h-.01s0,0,0,0c0,0,0,0,0,0l-.08.03c-1.38.42-2.8.86-4.18,1.1-3.01.51-6.05.68-9.06.53-.68-.58-1.38-1.14-2.1-1.67-.74-.47-1.49-.9-2.26-1.32.96.27,1.93.53,2.71.61,4.64.52,9.64.11,14.45-1.18,1.07-.29,2.43-.92,3.75-1.53,1.17-.54,2.38-1.1,3.01-1.23ZM69.45,81.85c1.32-1.46,2.43-2.17,4.56-1.83,1.31.2,1.47.78,1.76,1.82.07.24.14.49.23.74-.19-.05-.38-.04-.57.03-.61.24-1.44.19-2.24.14-.58-.04-1.18-.07-1.75,0-.53-.28-1.26-.62-1.99-.9ZM26.14,77.58c-.02-.07-.03-.14-.05-.22.04.05.08.09.11.14.73.91,1.55,1.94,2.27,2.54,1.92,1.59,4.07,2.76,6.39,3.78-1.15-.16-2.3-.26-3.44-.3-2.15-1.75-3.93-3.75-5.28-5.94ZM28.62,83.54c-.43.02-.85.05-1.27.09-.17-.61-.31-1.22-.44-1.88.54.62,1.11,1.21,1.71,1.79ZM57.42,133.94c.52-.57,1-1.15,1.45-1.74.96.08,2.04-.06,3.24-.53-.46,4.42-3.16,5.73-6.83,4.37.74-.65,1.45-1.35,2.14-2.1ZM58.31,98.04c-1.28-1.83-2.73-3.56-4.32-5.15,2.29,0,4.59-.19,6.88-.56,1.83,1.25,3.68,2.56,5.47,3.84,2.58,1.83,5.21,3.71,7.9,5.48-5.23-.6-10.68-1.86-15.92-3.61ZM67.42,94.64c-1.32-.94-2.68-1.9-4.04-2.85.66-.18,1.31-.37,1.95-.57l15.46,10.6c.07.05.14.08.21.1l-.14,1.63c-.47-.29-.93-.57-1.4-.85-.34-.2-.68-.4-1.01-.6,0,0,0,0,0,0-3.75-2.29-7.45-4.92-11.04-7.47ZM92.05,82.73s-.06,0-.1,0c.03-.05.04-.1.07-.15.13-.27.25-.53.35-.79.45-1.08.7-1.6,1.61-1.78.27-.05.51-.09.73-.11.07,0,.14,0,.2-.01.14,0,.28-.02.41-.02.05,0,.1,0,.15,0,.12,0,.23.02.33.04.05,0,.1.02.15.03.1.02.19.05.28.09.03.01.07.02.1.04.12.05.22.11.32.18.03.02.06.04.09.07.07.05.15.11.21.17.04.03.07.07.11.1.06.06.13.12.19.19.03.03.06.07.1.1.09.1.18.2.28.31.12.13.23.26.36.4.04.05.09.09.14.14.07.07.13.14.21.21-.29.08-.59.16-.91.23-.26.06-.53.12-.79.19-.4.11-.71.23-.95.37-1.01-.11-2.41-.05-3.67,0ZM26,59.64l-.03-.02-.77-.49-.26-.17h-.02s.03,0,.05.01c.1.04.19.09.29.14.06.03.13.06.19.09.02.01.05.02.07.04.16.1.31.22.44.36.01.01.03.02.04.03ZM21.66,52.45c.95-.59,1.84-1.14,2.56-1.62,0,0,0,0,0,0,0,.06,0,.11,0,.16,0,.11,0,.22,0,.33,0,.09,0,.18-.01.27-.01.15-.03.29-.07.43,0,.04,0,.08-.02.12-.11.41-.51.98-.89,1.53-.17.25-.34.49-.5.74-.55.86-.96,1.73-.68,2.64,0,.03.02.05.02.08l-.47-.3-3.39-2.16c.88-.64,2.35-1.55,3.43-2.22ZM17.35,57.74c-.02-.31-.01-.87.03-1.38l5.33,3.4,1.07.68,2.42,1.55h0s-.02.03-.03.04c-.27.34-.53.71-.74,1.08-.01.02-.02.04-.03.05-.15-.09-.29-.18-.44-.27-.11-.06-.21-.13-.32-.19-.32-.19-.63-.38-.94-.58,0,0,0,0-.01,0-.88-.58-1.8-1.19-2.66-1.78-1.7-1.15-3.18-2.19-3.66-2.6ZM24.54,64.85c-.43.96-.95,2.29-1.29,3.44l-3.03-2.07c.44-.38.95-.71,1.48-1.05.53-.33,1.07-.67,1.58-1.09.12.08.25.15.37.22,0,0,.01,0,.02,0,.06.04.12.07.18.11.21.13.42.25.62.38.02.02.05.03.07.05ZM22.95,70.35c.02.35.05.8.08,1.23-2.33-1.08-4.29-2.31-4.16-4.01l4.08,2.78ZM20.96,73.93c.47-.19,1.01-.35,1.58-.52.25.11.49.22.71.31.06.35.14.66.21.93.07.28.14.54.18.86,0,0,0,0,0,0,.07.51.24,1.03.4,1.53.12.38.24.75.3,1.06,0,0,0,0,0,0,0,0,0,0,0,0,.16.84.29,1.59.41,2.28.22,1.27.42,2.37.72,3.47-5.05.76-9.82,2.8-13.75,6.26-.04-.48-.07-.91-.07-1.25.07-5.48,3.35-12.57,9.31-14.93ZM2.49,107.8c-.23-.49-.15-1.31.04-2.06.16-.58.44-1.08.78-1.51.63-.79,1.47-1.35,2.18-1.71,2.47-1.25,6-1.56,8.2-.71.28.11.61.27.95.49.51.28.99.64,1.44,1.06.37.35.65.74.84,1.2-.05-.03-.11-.05-.17-.08,0,.02.02.04.02.04-.32-.19-.64-.34-.97-.49-3.78-1.56-8.01-.9-11.2,1.6-.76.6-1.32,1.29-1.85,2.12-.07.11-.14.21-.21.33-.03-.09-.04-.18-.05-.26ZM12.58,125.16c.23.25.37.62.57.9,1.37,1.87,2.74,3.65,3.99,5.59.63.99,1.1,2.46.31,3.09-.68.09-1.39-.02-2.09-.24-1.51-.48-2.98-1.53-4.07-2.53-2.6-2.38-4.61-5.28-6.18-8.44-1.67-3.37-2.9-7.52-2.35-11.27.03-.17.03-.35.07-.52.48-2.47,1.96-4.52,4.17-5.69,1.33-.71,2.73-1.14,4.24-1.24,3.35-.25,5.89,1.73,8.39,3.71.57.46,1.21.97,1.9,1.47,1.83,1.34,3.96,2.62,5.94,2.65l1.28.02,1.99.03c.56,0,1.29.15,1.68.56.84.88.68,2.28-.11,3.17-.29.32-.67.6-1.07.84-1.8,1.09-4.45,1.37-5.93.61l-3.72-2.33-.76-.47c-.29.04-.48.5-.33.79.22.41.51.68.83.99l1.01.94c.16.15.32.3.48.44.46.43.89.85,1.24,1.42.16.26.31.53.47.79,1.57,2.59,2.99,5.25,4.14,8.06.08.2.17.39.25.58.64,1.63.53,2.66-.31,4.18l-4.81-7.34-3.59-5.48c-.28-.43-.5-.78-1.02-.79-.44,0-.87.3-1.03.67-.22.51,0,.86.28,1.28l2.08,2.96,3.16,4.5c1.12,1.6,2.07,3.12,3,4.77.32.56.56,1.15.67,1.78,0,.03.01.06.02.09.14.96-.51,1.79-1.53,1.82-1.91.06-3.86-.67-5.23-2.06l-.94-1.35c.24-.83.04-1.61-.43-2.34-.85-1.31-1.81-2.49-2.81-3.7-.97-1.16-1.81-2.34-2.6-3.61-.25-.39-.69-.51-1.03-.34-.38.2-.51.69-.19,1.04ZM35.62,140.33c-1.01-.06-2.04-.17-3.07-.34.07-.34.17-.67.27-.99.88.14,1.74.22,2.56.24.65.01,1.27-.04,1.85-.12.15-.02.3-.03.44-.06,1.02-.19,1.46-1.2.02-1.35-.27-.03-.52-.06-.79-.09-.65-.08-1.28-.16-1.88-.24-.45-.06-.9-.12-1.32-.18-1.65-.25-3.13-.55-4.55-.97l.06-.78c.1-1.23,1.57-1.12,1.87-3.38.14-1,.02-1.98-.21-2.96,1.3.3,2.6.48,3.84.51.03,0,.06,0,.09,0,.66,0,1.32-.09,1.93-.17.75-.1,1.41-.16,1.88.06.63.3.91,1.11.57,3.06.71.09,1.23.26,1.61.5.59.36.87.87.98,1.51.13.73.04,1.62-.07,2.63,2.98.3,3.75,1.77.49,2.61-.02,0-.05.01-.07.02-.56.14-1.14.25-1.73.34-.91.13-1.86.21-2.84.22-.63,0-1.27-.01-1.92-.05ZM67.78,166.01c-16.57,1.74-24.06-6.28-28.88-21.08-.25-.76-.5-1.55-.74-2.35.94-.02,1.88-.09,2.82-.21,2.81,9.69,8.09,19.2,17.98,20.53,7.17.97,15.55.35,20.67-5.28.73,5.59-7.42,7.91-11.84,8.38ZM65.14,139.23c.52,1.17-2.71,1.19-3.78,1.64-3.86,1.63-8.27,4.72-9.49,8.92,5.99-5.58,12.17-10.33,20.69-7.11,11.91,4.5,8.01,17.01-3.54,18.53-15.33,2.01-22.33-5.44-26.28-19.1,4-.74,7.83-2.35,11.23-4.98.42.39.93.74,1.48.91,2.99.93,5.17.34,6.98-2.13l2.71,3.32ZM63.92,121.24c.7-3.59.61-7.24-.14-10.81,2.37.53,4.73.96,7.04,1.31.02,2.2.91,4.63,2.16,6.35-.05.62-6.49,2.62-9.05,3.15ZM138.21,86.53c-6.07,12.59-22.61,20.03-37.37,22.88-.36.07-.72.14-1.07.2-4.61.82-8.88,1.27-13.03,1.37-.35,0-.72,0-1.08,0-1.48.01-2.99-.02-4.52-.09-3.29-.15-6.68-.48-10.09-1-2.61-.4-5.21-.9-7.77-1.5-.77-2.72-1.91-5.37-3.36-7.87,5.93,1.8,12.04,2.96,17.77,3.3.28.17.56.33.84.5.92.54,1.78,1.05,2.59,1.65.02.02.05.03.08.04.03.02.06.03.09.05.09.04.18.07.27.08.01,0,.02,0,.04.01,0,0,.01,0,.02,0,0,0,0,0,0,0,.04,0,.07,0,.1,0,.33,0,.78-.17,3.91-2.09h0c2.23,0,4.42-.14,6.56-.36,4.77-.49,9.3-1.48,13.5-2.75,6.88-2.07,12.86-4.87,17.47-7.42.48-.27,1.06-.81,1.62-1.35.28-.26.69-.66.83-.74,0,0,0,0,0,0,0,0,0,0,0,0,.3-.18.63-.33.94-.47.33-.15.64-.29.91-.46,1.19-.73,2.3-1.36,3.33-1.95,2.08-1.19,3.9-2.24,5.57-3.58,1.32-1.06,2.55-2.28,3.72-3.91-.41,1.91-1.05,3.72-1.88,5.44ZM135,83.7c-1.51,1.17-3.18,2.13-5.13,3.25-1.05.6-2.17,1.24-3.38,1.98-.2.12-.45.23-.71.36-.29.13-.62.29-.95.48-7.85,1.59-14.26,1.65-20.75.21-1.26-.29-2.62-.72-4.26-1.35,0,0,0,0,0,0,0,0,0,0,0,0-2.76-1.07-4.1-2.17-5.64-3.44-.25-.2-.5-.41-.76-.62.95-.03,1.87-.03,2.41.08.06.01.13.02.19.02.28,0,.54-.12.72-.33.04-.02.11-.05.18-.07,4.78,1.74,10.16,3.65,15.87,3.65.16,0,.32,0,.48,0,2.78-.05,6.85-.79,11.17-2.01,2.64-.74,5.16-1.61,7.11-2.46.75-.33,1.48-.71,2.17-1.11,2.59-1.49,4.79-3.44,6.29-5.65.06-.09.11-.18.17-.27l.46.13c-1.74,3.48-3.52,5.54-5.62,7.17ZM140.82,67.77c-.3.19-.48.53-.45.88.08.94.03,1.86-.15,2.77-.28,1.44-.88,2.84-1.79,4.19-1.4,2.06-3.49,3.88-5.97,5.25-.55.3-1.11.59-1.7.85-.74.32-1.57.65-2.46.97,1.44-.61,2.79-1.3,3.97-2.05.29-.18.58-.37.85-.56,2.57-1.79,4.22-3.77,4.9-5.89.36-1.09.82-4.02.29-5.82.05-.04.1-.08.15-.12.08-.06.15-.12.23-.18.2-.16.38-.32.55-.49.01-.01.03-.02.04-.04.04-.04.09-.09.13-.13.2-.22.38-.46.54-.7.04-.06.07-.13.11-.19.12-.2.22-.41.31-.62.02-.05.05-.09.07-.14.41.69.54,1.23.64,1.9-.09.02-.18.06-.27.11ZM140.86,63.33c0-.11,0-.22,0-.32,0-.09,0-.18,0-.28l8.78-5.72c-.03.36-.05.72-.05,1.06-2.11,1.53-4.29,3.1-6.47,4.51,0,0,0,0,0,0,0,0,0,0,0,0-.24.16-.52.3-.82.44-.35.18-.73.37-1.1.62-.11-.11-.22-.22-.34-.32ZM143.13,64.71c.17-.08.34-.17.51-.26,1.02.58,2.59,1.54,3.51,2.21l-3.99,2.37v-.02s0,0,0,0c-.06-.36-.1-.69-.13-1-.11-.94-.22-1.79-.75-2.82.26-.17.55-.33.86-.48ZM169.16,88.15c-1.58-2.94-2.67-7.19-.84-9.92.4,1.37.87,2.76,1.82,4.05.19.26.48.48.77.69.33.25.68.51.76.77,0,.03,0,.1,0,.18-.03.25-.11.66-.18.99-.12.59-.25,1.24-.28,1.8-.01.18-.01.36,0,.51.09.98.36,1.79.63,2.58.11.34.23.68.34,1.04-1.43-.21-2.16-1.1-3.01-2.69ZM194.33,88c-.71,1.08-2.21,1.72-4.45,1.91-1.92.16-4.39-.54-5.19-2-.46-.83-.31-1.79.43-2.84,3.17.74,6.57.49,9.44-.71.44,1.53.36,2.75-.23,3.64ZM195.23,81.24c-1.6,2.3-6.2,2.99-9.23,2.08-1.23-.37-3.29-1.32-3.35-3.6-.02-.93,1.38-2.73,1.99-2.81.11.02.45.27.68.43.36.26.74.53,1.05.63,2.29.74,5.05-.3,7.27-1.15.34-.13.66-.25.97-.36,1.31,1.82,1.52,3.47.61,4.77ZM194.22,74.63c-1.59.99-5.42,2.52-7.51,1.73-.68-.26-1.11-.73-1.32-1.44-.26-.89-.14-1.76.37-2.6,1.07-1.76,3.67-3.07,5.68-3.46l.25-.05v-.26c0-.39-.19-.59-.35-.69-.66-.41-2.05.2-3.33.85l-.14.07c-2.01,1-3.28,2.27-3.79,3.79-.17.52-.19,1.11-.2,1.63,0,.42-.02.81-.11,1.03-.08.2-.5.49-.83.73-.3.21-.61.43-.83.66-1.01,1.09-1.45,2.47-1.24,3.87.21,1.45,1.12,2.81,2.44,3.69-.98,1.5-1.06,3.2-.2,4.71.97,1.7,2.94,2.74,4.96,2.65-.06.02-.12.04-.19.07-3.6,1.67-9.16,2.29-12.35.14-1.75-1.18-2.58-3.04-2.46-5.54.02-.35.2-.89.37-1.41.3-.91.48-1.49.3-1.87l-.04-.08-.07-.05c-2.68-1.72-3.9-4.22-3.55-7.23.11-.92.44-1.78.76-2.61.62-1.62,1.27-3.3.28-5.41-.51-1.09-1.64-2.14-2.84-3.26-1.65-1.53-3.35-3.12-3.35-4.78,0-.85.44-1.66,1.33-2.5,1-.93,2.12-1.2,3.08-1.2.35,0,.68.04.97.09,2.28.41,4.71,2.26,5.79,4.39.96,1.91.9,3.29.82,4.76-.05,1.04-.1,2.11.24,3.37.2.75,1.08,2.82,2.41,2.5l.13-.03.07-.11c.16-.27-.03-.54-.49-1.2-.26-.37-.94-1.35-.78-1.59l7.86-1.57c2.22-.27,5.23-.28,6.97.32.23.08.45.17.66.27,1.47.7,2.43,1.91,2.59,3.32.19,1.64-.7,3.25-2.37,4.3Z"/>
          <path class="st0" d="M179.58,73.84l-.07-.2h-.21c-.28-.02-.51.06-.67.23-.29.33-.21.84-.12,1.38.05.31.1.63.07.88-.3,2.42-1.31,3.8-2.93,5.85l-.68.86,1.03-.37c.31-.11.61-.26.88-.43,2.54-1.53,3.56-5.14,2.8-7.84-.03-.12-.06-.24-.1-.36Z"/>
          <path class="st0" d="M59,18.41c.43.25.9.37,1.41.37.36,0,.73-.06,1.11-.19,1.6-.53,2.97-2.03,3.44-3.17l.07-.13c.27-.54.92-1.82-.11-2.43-.2-.12-.43-.16-.65-.11l-.35.07c-1.84.34-4.35.8-5.26,2.46-.43.78-.45,1.68-.05,2.67.08.19.22.36.4.46ZM60.3,16.18c.36-.66,1.67-1.05,2.85-1.3-.39.72-1.33,1.64-2.22,1.94-.31.1-.53.11-.69.08-.1-.43.02-.64.06-.72Z"/>
          <path class="st0" d="M37.51,36.34c.07,0,.14,0,.21-.02,2.2-.49,4.24-2.32,4.85-4.34.05-.16.05-.33.01-.5-.49-2.01-1.74-2.47-2.74-2.23-2.04.48-3.8,3.93-3.25,6.36.1.43.49.73.91.73ZM40.28,31.07s.02,0,.02,0c.15,0,.3.32.39.61-.38.97-1.26,1.87-2.29,2.41.21-1.43,1.24-2.86,1.88-3.01Z"/>
          <path class="st0" d="M76.07,15.64l-.58-.12c-.17-.03-.35-.02-.52.04-4.69,1.8-4.68,4.07-4.57,4.72.17.99,1,1.66,2.06,1.68h.04c1.49,0,3.49-1.36,4.3-5.21.05-.25,0-.5-.14-.71-.14-.21-.35-.35-.6-.4ZM72.51,20.09h-.01c-.1,0-.23-.03-.25-.13-.06-.35.46-1.26,2.31-2.17-.62,1.67-1.51,2.3-2.06,2.3Z"/>
          <path class="st0" d="M55.45,34.57c-3.86,2.06-3.29,4.84-2.61,6.31.08.16.2.3.35.4.42.27.87.4,1.32.4s.9-.14,1.32-.41c0,0,0,0,0,0,1.62-1.06,1.73-4.89.87-6.35-.25-.43-.8-.59-1.25-.35ZM54.8,39.7c-.14.09-.25.12-.38.09-.35-.9-.4-1.91.92-2.93.1,1.11-.16,2.59-.53,2.84Z"/>
          <path class="st0" d="M93.88,9.07s.04,0,.05,0c1.13-.02,1.9-.72,2.07-1.86.11-.76-.13-1.45-.71-2-1.3-1.25-4.14-1.48-5.36-1.25-.05,0-.1.02-.15.04-.69.26-1.05.88-.92,1.59.28,1.49,3.17,3.48,5.02,3.48ZM94,6.57c.17.16.17.27.15.38-.03.24-.07.24-.2.25-.79.07-2.15-.78-2.83-1.44.99.03,2.33.28,2.88.81Z"/>
          <path class="st0" d="M83.75,17.77c.33.13.65.2.97.2.68,0,1.33-.29,1.87-.86,1.29-1.36,1.73-4.12,1.16-5.34-.28-.6-.8-.93-1.4-.89-1.14.07-3.51,2.99-3.79,4.67-.17,1.03.27,1.86,1.18,2.23ZM86.13,13.17c-.01.75-.28,1.96-.87,2.62-.35.39-.59.34-.85.25-.16-.5.91-2.05,1.72-2.87Z"/>
          <path class="st0" d="M49.71,15.98c.19.04.4.05.61.05,1.82,0,4.39-1.18,5.22-2.07.18-.19.27-.45.25-.71s-.15-.5-.35-.66c-1.27-1.02-3.8-1.6-5.32-1.22h0c-.7.17-1.37.74-1.75,1.49-.34.67-.4,1.37-.17,1.96.24.61.78,1.02,1.51,1.16ZM50.04,13.71c.14-.28.38-.49.53-.52.59-.15,1.56-.03,2.41.24-1.16.53-2.69.93-3.04.7-.02-.05-.01-.21.09-.42Z"/>
          <path class="st0" d="M45.65,42.53c-.57.13-1.83.69-1.41,3.16.04.24.17.45.36.59,1.06.79,2.67,1.81,4.65,1.81.11,0,.23,0,.34-.01.49.03.87-.12,1.12-.43.14-.17.36-.55.2-1.11-.57-2.02-3.4-4.45-5.28-4.02ZM46.04,45c-.04-.47.03-.64.02-.65.07-.02.35,0,.84.25.68.36,1.34.96,1.77,1.57-.82-.12-1.68-.51-2.63-1.17Z"/>
          <path class="st0" d="M94.48,28.01c-.28-.06-.57,0-.79.18-1.25.99-.18,4.08.79,5.36.67.88,1.41,1.21,2.06,1.21.47,0,.9-.17,1.23-.41.73-.45,1.06-1.2.91-2.06-.31-1.84-2.84-3.96-4.21-4.27ZM96.84,32.7s-.12.09-.12.09c-.15.11-.21.12-.39,0-.57-.4-1.04-1.5-1.24-2.35.58.44,1.21,1.07,1.55,1.67.24.42.2.6.2.6Z"/>
          <path class="st0" d="M54.76,23.86c-.19-.05-.38-.05-.56.02-1.36.47-3.69,3.32-3.5,5.18.1.95.79,1.59,1.84,1.72.1.01.19.02.28.02,1.36,0,2.44-1.25,2.87-3.34.11-.52.57-3.16-.93-3.59ZM53.26,28.6c-.26.35-.42.33-.49.32-.12-.02-.18-.04-.2-.04h0c-.02-.08,0-.38.25-.89.29-.61.73-1.19,1.14-1.63-.06.72-.28,1.66-.7,2.23Z"/>
          <path class="st0" d="M92.64,17.81c-.54,1.24-.15,1.96.13,2.28.34.39.83.58,1.46.58.37,0,.79-.07,1.25-.2,1.17-.33,2.97-3.49,2.76-4.83-.11-.72-.68-1.18-1.43-1.17-1.81.06-3.59,1.98-4.18,3.34ZM95,17.58c.39-.45.83-.81,1.24-1.03-.31.76-.99,1.85-1.35,2.15-.29.08-.49.1-.61.1.07-.26.29-.72.73-1.22Z"/>
          <path class="st0" d="M64.47,41.57c-.58-.49-1.07-.46-1.37-.35-.17.07-.32.18-.43.33-.81,1.14-1.23,4.03-.13,5.54.43.59,1.03.89,1.73.89.27,0,.55-.05.84-.14.74-.23,1.22-.78,1.38-1.53.34-1.69-1.15-4.02-2.01-4.74ZM64.53,46.06c-.35.11-.42.02-.48-.07-.32-.44-.36-1.46-.22-2.29.44.67.89,1.62.81,2.21-.02.13-.03.13-.11.16Z"/>
          <path class="st0" d="M125.82,56.68c.1,0,.2,0,.31-.02,1.1-.17,1.5-.88,1.63-1.29.53-1.62-1.06-3.95-1.87-4.77-.23-.23-.84-.85-1.57-.61-.12.04-.24.1-.34.19-1.15,1.02-1.09,3.29-.38,4.81.51,1.09,1.32,1.7,2.22,1.7ZM124.97,52.38c.58.79,1.18,2.02,1.03,2.37,0,0-.04.03-.15.04-.12.02-.35-.21-.55-.62-.28-.59-.36-1.27-.33-1.8Z"/>
          <path class="st0" d="M67.66,36.51c.28,1.33,1.17,1.59,1.53,1.64.08.01.16.02.24.02,1.38,0,2.69-1.55,3.26-2.66.7-1.37.67-2.62-.08-3.42-.31-.33-.81-.39-1.19-.15l-.37.23c-1.43.88-3.81,2.36-3.39,4.33ZM71.17,34.33s0,.02-.01.03c-.39.97-1.23,1.75-1.62,1.9-.01-.04-.03-.08-.04-.14-.08-.37.48-.97,1.68-1.79Z"/>
          <path class="st0" d="M70.09,7.88c.84.5,1.68.71,2.47.71,1.19,0,2.24-.47,2.96-1.15.85-.8,1.14-1.82.74-2.61-.32-.63-1.14-1.29-3.21-.88-.67.13-2.82,1.62-3.27,2.47-.24.46-.14.83-.07,1.01.08.18.21.33.38.43ZM73.47,5.79c.56-.11.88-.09,1.05-.06-.1.18-.33.47-.78.7-.33.17-.9.37-1.61.25.49-.38,1.09-.78,1.35-.89Z"/>
          <path class="st0" d="M45.15,23.61c.54,0,1.24-.14,2.11-.53.92-.41,1.67-1.36,2.26-2.11l.27-.34c.27-.34.28-.82.02-1.16-.61-.8-3.77-.48-3.8-.47h0c-1.46.27-2.6,1.15-2.89,2.25-.19.72,0,1.43.55,1.88.26.22.73.49,1.48.49ZM46.34,20.83c.13-.02.47-.02.85-.02-.24.25-.48.45-.71.55-.89.4-1.39.39-1.55.34.06-.2.43-.7,1.41-.88Z"/>
          <path class="st0" d="M62.92,27.67c-.24,1.09.2,1.97,1.18,2.36.3.12.6.18.89.18.57,0,1.11-.22,1.55-.66,1.23-1.21,1.47-3.79,1.04-4.94-.33-.87-.97-.99-1.23-1.01h0c-1.04-.04-3.13,2.75-3.42,4.08ZM65.26,28.17c-.17.2-.28.2-.52.12-.11-.38.54-1.38,1.16-2.12-.04.69-.23,1.56-.63,2Z"/>
          <path class="st0" d="M106.7,23.81c.08,0,.15,0,.23-.03l1.85-.46c.41-.1.71-.47.71-.9.02-1.98-1.11-4.35-3.31-5.06-.25-.08-.52-.05-.75.08-.23.13-.39.35-.45.61-.53,2.35.01,3.61.9,5.27.17.31.49.5.83.5ZM107.55,21.69l-.36.09c-.35-.72-.54-1.29-.55-1.97.48.51.79,1.2.91,1.88Z"/>
          <path class="st0" d="M116.11,14.72c0,.07,0,.15-.01.23-.02.22-.04.49.03.77.04.17.12.32.24.44,1.25,1.28,2.32,1.92,3.19,1.92.32,0,.61-.09.87-.26.8-.52.98-1.7.46-2.99-.66-1.63-2.3-3.09-4.49-2.67-.36.07-.64.33-.73.68-.1.37.03.71.27,1.38.07.21.15.4.17.49ZM118.68,14.76c.43.52.6,1.06.63,1.38-.24-.11-.67-.38-1.34-1.02,0,0,0,0,0-.01.02-.18.03-.41,0-.65-.01-.09-.04-.2-.08-.32.34.15.6.39.79.62Z"/>
          <path class="st0" d="M128.42,40.95c-.31.99.18,2.28,1.31,3.47.82.86,2.03,1.67,3.24,1.67.22,0,.45-.03.67-.09.55-.2,1.11-.82.6-2.67-.59-2.15-2.08-4.15-4.1-3.75-1.2.23-1.6.97-1.73,1.38ZM130.21,41.52s.1-.07.3-.11c.11-.02.4-.08.84.35.64.62,1.03,1.69,1.17,2.37-.46-.17-1.06-.58-1.57-1.16-.68-.78-.78-1.34-.74-1.44Z"/>
          <path class="st0" d="M127.76,32.74c.12.03.3.06.5.06.56,0,1.34-.23,1.98-1.31.03-.04.05-.09.07-.13.3-.76-.05-1.66-1.07-2.75-.24-.25-2.33-2.43-3.44-2.07-.25.08-1.07.45-1.03,1.73.05,1.5,1.32,4.04,2.99,4.47ZM128.51,30.73c-.18.24-.28.2-.33.18-.58-.24-1.14-1.24-1.39-2.01.71.56,1.54,1.38,1.73,1.83Z"/>
          <path class="st0" d="M33.35,49.57c.26,0,.52-.05.78-.15,1.82-.71,2.76-3.71,2.92-4.55.07-.53-.13-.87-.3-1.05-.38-.4-.88-.37-1.13-.35h-.1s0,0,0,0c-1.09.03-3.65,2.15-4.12,3.65-.24.78-.02,1.52.59,1.97.43.31.89.47,1.36.47ZM34.76,45.91c-.36.81-.86,1.59-1.31,1.77-.06.02-.12.05-.26-.03.13-.44.89-1.21,1.57-1.74Z"/>
          <path class="st0" d="M41.22,54.29c-.57.13-1.83.69-1.41,3.16.04.24.17.45.36.59,1.06.79,2.67,1.81,4.65,1.81.11,0,.23,0,.34-.01.5.02.87-.12,1.12-.43.14-.17.36-.55.2-1.11-.57-2.03-3.4-4.45-5.28-4.02ZM41.61,56.77c-.04-.47.03-.64.02-.65.07-.02.35,0,.84.25.67.36,1.34.96,1.77,1.57-.82-.12-1.68-.51-2.63-1.17Z"/>
          <path class="st0" d="M59.83,59.75c.27,0,.55-.05.84-.14.74-.23,1.22-.78,1.37-1.53.34-1.69-1.15-4.02-2.01-4.74-.58-.49-1.07-.46-1.37-.35-.17.07-.32.18-.43.33-.81,1.14-1.23,4.03-.13,5.54.43.59,1.03.89,1.73.89ZM59.39,55.46c.44.67.89,1.62.81,2.21-.02.13-.03.13-.11.16-.35.11-.42.02-.48-.07-.32-.44-.36-1.46-.22-2.29Z"/>
          <path class="st0" d="M83.02,52.53c1.12,0,2.21-.33,3.23-.99.05-.03.09-.08.14-.12,3.01-2.03,4.96-6.62,4.96-11.76s-1.97-9.8-5.01-11.81c-.05-.04-.12-.06-.18-.08-.99-.61-2.04-.94-3.13-.94-4.67,0-8.32,5.64-8.32,12.85s3.65,12.85,8.32,12.85ZM83.02,28.71c.31,0,.61.04.91.12-1.97,1.68-3.36,4.23-3.91,7.1,0,.03,0,.05-.01.08-.08.45-.15.91-.19,1.38,0,.05,0,.1-.01.15-.04.46-.06.93-.05,1.4,0,0,0,0,0,.01,0,0,0,0,0,0,0,.08,0,.17,0,.25v.25c.01.51.43.92.94.92h1.6s-1.66,1.11-1.66,1.11c-.24.16-.4.48-.42.76-.03.3-.04.6-.04.9-.02,2.06.48,4.01,1.44,5.55.49.78,1.08,1.44,1.73,1.94-3.6.33-6.78-4.82-6.78-10.96s2.95-10.97,6.45-10.97Z"/>
          <path class="st0" d="M105.1,39.69c0,7.2,3.66,12.85,8.32,12.85,1.12,0,2.21-.33,3.23-.99.05-.03.09-.08.14-.12,3.01-2.03,4.95-6.62,4.95-11.76s-1.97-9.8-5.01-11.81c-.06-.04-.12-.06-.18-.08-.99-.61-2.04-.94-3.13-.94-4.67,0-8.32,5.64-8.32,12.85ZM113.42,28.71c.31,0,.61.04.91.12-1.97,1.68-3.36,4.23-3.91,7.11,0,.02,0,.05-.01.07-.08.46-.15.92-.19,1.39,0,.05,0,.1-.01.14-.04.46-.06.93-.05,1.4,0,0,0,0,0,.01,0,0,0,0,0,0,0,.08,0,.16,0,.25v.25c.01.51.43.92.94.92h1.6s-1.66,1.11-1.66,1.11c-.24.16-.4.48-.42.76-.03.3-.04.6-.04.9-.02,2.06.48,4.01,1.44,5.55.49.78,1.08,1.44,1.73,1.94-.11.01-.23.02-.34.02-3.49,0-6.45-5.02-6.45-10.97s2.95-10.97,6.45-10.97Z"/>
          <circle class="st0" cx="98.22" cy="47.72" r="3.53"/>
          <path class="st0" d="M93.95,54.63c-1.73-.46-3.52-.94-5.26-.81-1.69.12-3.98.72-4.47,4.45-.44,3.38,2.26,8.72,8.13,11.96,1.77.98,3.69,1.47,5.69,1.47h0c3.08,0,6.15-1.18,8.87-3.4,2.79-2.28,5.97-6.25,5.28-12.22-.23-1.96-1.28-4.21-5.02-3.85-1.73.17-3.22.95-4.53,1.64-1.35.71-2.62,1.38-4.14,1.5-1.38.1-2.98-.32-4.55-.74ZM88.81,64.48c-1.74-2.1-2.59-4.34-2.38-5.92.28-2.18,1.22-2.42,2.42-2.51.02,0,.04,0,.05,0-.34,2.37-.51,5.33-.09,8.43ZM93.42,68.27c-.63-.35-1.22-.73-1.78-1.14-1.09-3.93-.94-7.91-.5-10.88.74.15,1.51.34,2.26.55.63.17,1.28.34,1.92.48-.19,1.95-.24,3.93-.12,5.89.12,2.06.42,4.1.87,6.08-.91-.19-1.8-.51-2.65-.98ZM104.45,55.44c.98-.5,1.9-.9,2.92-.99,1.55-.15,2.38.1,2.58,1.88.57,4.97-2.12,8.31-4.47,10.23,0,0,0,0-.01.01-.34-1.29-.73-3.01-.94-4.88-.23-2.07-.25-4.17-.08-6.25ZM102.14,56.62c-.07,1.77-.02,3.55.18,5.32.26,2.4.8,4.57,1.21,5.97-1.66.95-3.4,1.46-5.1,1.53-.52-2.08-.86-4.23-.99-6.41-.11-1.81-.06-3.63.11-5.44.38.02.75.03,1.13,0,1.3-.1,2.44-.5,3.47-.98Z"/>
        </g>
      </g>
    </g>
  </g>
</svg>